<?xml version="1.0" encoding="UTF-8"?>
<svg id="_レイヤー_2" data-name="レイヤー 2" xmlns="http://www.w3.org/2000/svg" viewBox="0 0 729.75 193.11">
  <defs>
    <style>
      .cls-1 {
        stroke: #ff5833;
        stroke-width: 5.41px;
      }

      .cls-1, .cls-2, .cls-3, .cls-4, .cls-5, .cls-6, .cls-7 {
        stroke-linecap: round;
      }

      .cls-1, .cls-2, .cls-3, .cls-4, .cls-5, .cls-6, .cls-7, .cls-8, .cls-9, .cls-10, .cls-11, .cls-12, .cls-13, .cls-14 {
        stroke-miterlimit: 10;
      }

      .cls-1, .cls-2, .cls-3, .cls-4, .cls-5, .cls-6, .cls-7, .cls-8, .cls-11, .cls-12, .cls-13, .cls-14 {
        fill: none;
      }

      .cls-15 {
        fill: #b7781c;
      }

      .cls-2 {
        stroke-width: 10px;
      }

      .cls-2, .cls-3 {
        stroke: #c70038;
      }

      .cls-3, .cls-8, .cls-12 {
        stroke-width: 12px;
      }

      .cls-4 {
        stroke-width: 13.92px;
      }

      .cls-4, .cls-11 {
        stroke: #b7781c;
      }

      .cls-5 {
        stroke-width: 12.45px;
      }

      .cls-5, .cls-6, .cls-7, .cls-12, .cls-13, .cls-14 {
        stroke: #4d4d4d;
      }

      .cls-6 {
        stroke-width: 16px;
      }

      .cls-7 {
        stroke-width: 15.25px;
      }

      .cls-16, .cls-9, .cls-10 {
        fill: #4d4d4d;
      }

      .cls-17 {
        fill: #ff5833;
      }

      .cls-18 {
        fill: #ffc300;
      }

      .cls-8 {
        stroke: #ffc300;
      }

      .cls-9 {
        stroke-width: 4px;
      }

      .cls-9, .cls-10 {
        stroke: #fff;
      }

      .cls-10 {
        stroke-width: 4.59px;
      }

      .cls-11, .cls-13 {
        stroke-width: 8px;
      }

      .cls-14 {
        stroke-width: 8.7px;
      }
    </style>
  </defs>
  <g id="_レイヤー_1-2" data-name="レイヤー 1">
    <g>
      <g>
        <g>
          <circle class="cls-15" cx="47.62" cy="26.49" r="25"/>
          <g>
            <line class="cls-7" x1="7.62" y1="67.49" x2="87.62" y2="67.49"/>
            <line class="cls-4" x1="14.29" y1="91.49" x2="80.96" y2="91.49"/>
            <line class="cls-5" x1="20.96" y1="115.49" x2="74.29" y2="115.49"/>
          </g>
          <rect class="cls-15" x="26.62" y="135.49" width="42" height="42"/>
        </g>
        <g>
          <g>
            <polyline class="cls-16" points="111.81 48.49 155.02 48.49 155.02 5.27"/>
            <polyline class="cls-16" points="155.02 48.49 198.24 48.49 198.24 5.27"/>
          </g>
          <g>
            <line class="cls-11" x1="155.55" y1="65.56" x2="155.55" y2="178.29"/>
            <g>
              <rect class="cls-9" x="116.77" y="76.1" width="81.47" height="15.41" rx="7.71" ry="7.71"/>
              <rect class="cls-9" x="116.77" y="101.51" width="81.47" height="15.41" rx="7.71" ry="7.71"/>
              <rect class="cls-9" x="116.77" y="126.93" width="81.47" height="15.41" rx="7.71" ry="7.71"/>
              <rect class="cls-9" x="116.77" y="152.34" width="81.47" height="15.41" rx="7.71" ry="7.71"/>
            </g>
          </g>
        </g>
      </g>
      <g>
        <g>
          <line class="cls-6" x1="255.75" y1="15.82" x2="351.75" y2="15.82"/>
          <path class="cls-3" d="M303.75,37.82s-55.93,9.26-57.47,73.44,41.61,69.14,57.47,70.13c15.85.99,57.47-4.95,61.43-62.96.05-68.82-61.43-52.99-61.43-52.99"/>
          <line class="cls-2" x1="342.39" y1="117.65" x2="265.1" y2="117.65"/>
        </g>
        <g>
          <polyline class="cls-16" points="397.18 51.19 452.18 51.19 452.18 0"/>
          <line class="cls-8" x1="431.15" y1="63.66" x2="431.15" y2="190.4"/>
          <polyline class="cls-18" points="460.66 51.17 497.76 51.17 497.76 18.29"/>
          <polyline class="cls-18" points="529.16 51.47 501.88 51.47 501.88 27.28"/>
          <g>
            <polyline class="cls-13" points="497.96 63.66 497.96 183.4 521.31 183.4"/>
            <g>
              <rect class="cls-10" x="459.55" y="82.52" width="80.69" height="15.69" rx="7.85" ry="7.85"/>
              <rect class="cls-10" x="459.55" y="112.66" width="80.69" height="15.69" rx="7.85" ry="7.85"/>
              <rect class="cls-10" x="459.55" y="142.8" width="80.69" height="15.69" rx="7.85" ry="7.85"/>
            </g>
          </g>
        </g>
        <g>
          <polyline class="cls-12" points="572.24 18 621.39 18 621.39 77.01 579.45 77.01 579.45 113.45 623.14 113.45 623.14 179.17 601.29 166.79"/>
          <g>
            <line class="cls-14" x1="679.5" y1="56.74" x2="679.5" y2="142.8"/>
            <g>
              <rect class="cls-9" x="649.55" y="74.75" width="64" height="16.65" rx="8.32" ry="8.32"/>
              <rect class="cls-9" x="649.55" y="106.25" width="64" height="16.65" rx="7.85" ry="7.85"/>
            </g>
          </g>
          <g>
            <polyline class="cls-17" points="714.67 48.39 679.6 13.32 644.54 48.39"/>
            <line class="cls-1" x1="709.32" y1="33.32" x2="727.05" y2="52.14"/>
          </g>
          <g>
            <polyline class="cls-17" points="714.67 186.65 679.6 151.58 644.54 186.65"/>
            <line class="cls-1" x1="709.32" y1="171.58" x2="727.05" y2="190.4"/>
          </g>
        </g>
      </g>
    </g>
  </g>
</svg>